<?xml version="1.0" encoding="UTF-8" standalone="no"?>
<!DOCTYPE svg PUBLIC "-//W3C//DTD SVG 1.1//EN" "http://www.w3.org/Graphics/SVG/1.1/DTD/svg11.dtd">
<svg width="48.00" height="48.00" viewBox="0.00 0.00 800.00 800.00" xmlns="http://www.w3.org/2000/svg" xmlns:xlink="http://www.w3.org/1999/xlink">
<g stroke-linecap="round" id="Capa_13">
<path d="M46.50,754.50 L753.00,754.50" fill="none" stroke="rgb(0, 0, 0)" stroke-width="15.00" stroke-opacity="1.00" stroke-linejoin="miter"/>
<path d="M121.50,754.50 L123.00,724.50" fill="none" stroke="rgb(0, 0, 0)" stroke-width="15.00" stroke-opacity="1.00" stroke-linejoin="miter"/>
<path d="M78.24,724.52 L167.49,723.97 L129.48,458.40" fill="none" stroke="rgb(0, 0, 0)" stroke-width="15.00" stroke-opacity="1.00" stroke-linejoin="miter"/>
<path d="M75.48,724.52 L130.03,458.95" fill="none" stroke="rgb(0, 0, 0)" stroke-width="15.00" stroke-opacity="1.00" stroke-linejoin="miter"/>
<path d="M195.56,758.89 L197.78,216.67 L357.78,127.78 L357.78,753.33" fill="none" stroke="rgb(0, 0, 0)" stroke-width="15.00" stroke-opacity="1.00" stroke-linejoin="miter"/>
<path d="M217.78,411.11 L330.00,412.22" fill="none" stroke="rgb(0, 0, 0)" stroke-width="15.00" stroke-opacity="1.00" stroke-linejoin="miter"/>
<path d="M217.78,508.89 L326.67,508.89" fill="none" stroke="rgb(0, 0, 0)" stroke-width="15.00" stroke-opacity="1.00" stroke-linejoin="miter"/>
<path d="M218.89,557.78 L323.33,558.89" fill="none" stroke="rgb(0, 0, 0)" stroke-width="15.00" stroke-opacity="1.00" stroke-linejoin="miter"/>
<path d="M220.00,653.33 L326.67,653.33" fill="none" stroke="rgb(0, 0, 0)" stroke-width="15.00" stroke-opacity="1.00" stroke-linejoin="miter"/>
<path d="M406.67,754.44 L407.78,400.00 L541.11,401.11 L543.33,756.67" fill="none" stroke="rgb(0, 0, 0)" stroke-width="15.00" stroke-opacity="1.00" stroke-linejoin="miter"/>
<path d="M432.22,468.89 L431.11,523.33" fill="none" stroke="rgb(0, 0, 0)" stroke-width="15.00" stroke-opacity="1.00" stroke-linejoin="miter"/>
<path d="M503.33,514.44 L504.44,563.33" fill="none" stroke="rgb(0, 0, 0)" stroke-width="15.00" stroke-opacity="1.00" stroke-linejoin="miter"/>
<path d="M464.44,571.11 L463.33,627.78" fill="none" stroke="rgb(0, 0, 0)" stroke-width="15.00" stroke-opacity="1.00" stroke-linejoin="miter"/>
<path d="M611.57,752.07 L610.47,647.93" fill="none" stroke="rgb(0, 0, 0)" stroke-width="15.00" stroke-opacity="1.00" stroke-linejoin="miter"/>
<path d="M584.57,647.93 L633.61,648.48" fill="none" stroke="rgb(0, 0, 0)" stroke-width="15.00" stroke-opacity="1.00" stroke-linejoin="miter"/>
<path d="M583.47,648.48 L610.47,535.54" fill="none" stroke="rgb(0, 0, 0)" stroke-width="15.00" stroke-opacity="1.00" stroke-linejoin="miter"/>
<path d="M610.47,535.54 L632.51,648.48" fill="none" stroke="rgb(0, 0, 0)" stroke-width="15.00" stroke-opacity="1.00" stroke-linejoin="miter"/>
<path d="M688.15,750.96 L688.15,715.15" fill="none" stroke="rgb(0, 0, 0)" stroke-width="15.00" stroke-opacity="1.00" stroke-linejoin="miter"/>
<path d="M655.65,715.70 L716.25,715.70" fill="none" stroke="rgb(0, 0, 0)" stroke-width="15.00" stroke-opacity="1.00" stroke-linejoin="miter"/>
<path d="M656.75,715.70 L687.60,530.58" fill="none" stroke="rgb(0, 0, 0)" stroke-width="15.00" stroke-opacity="1.00" stroke-linejoin="miter"/>
<path d="M687.60,530.58 L716.25,714.60" fill="none" stroke="rgb(0, 0, 0)" stroke-width="15.00" stroke-opacity="1.00" stroke-linejoin="miter"/>
</g>
</svg>
