<?xml version="1.0" encoding="UTF-8" standalone="no"?>
<!DOCTYPE svg PUBLIC "-//W3C//DTD SVG 1.1//EN" "http://www.w3.org/Graphics/SVG/1.1/DTD/svg11.dtd">
<svg width="48.00" height="48.00" viewBox="0.00 0.00 800.00 800.00" xmlns="http://www.w3.org/2000/svg" xmlns:xlink="http://www.w3.org/1999/xlink">
<g stroke-linecap="round" transform="translate(10.00, 9.00)" id="Capa_4">
<path d="M560.64,691.07 C557.29,692.97 540.08,701.60 533.02,704.86 C525.86,707.99 511.40,713.82 504.14,716.49 C493.24,720.25 485.87,722.45 474.69,725.29 C467.16,727.04 451.87,730.11 444.17,731.42 C436.48,732.57 417.35,734.79 413.51,735.05 C409.67,735.30 390.41,735.61 382.64,735.49 C374.83,735.20 359.27,734.17 351.57,733.43 C340.12,732.09 332.52,730.87 321.23,728.58 C313.68,726.89 298.57,723.02 291.06,720.86 C283.64,718.56 265.43,712.27 261.86,710.83 C258.30,709.39 240.81,701.31 233.86,697.83 C226.95,694.18 213.38,686.51 206.76,682.50 C197.03,676.32 190.71,671.93 181.53,664.97 C175.46,660.17 163.53,650.13 157.70,644.92 C152.01,639.63 138.34,626.06 135.74,623.21 C133.15,620.37 120.90,605.51 116.16,599.35 C111.51,593.07 102.61,580.26 98.39,573.78 C92.30,563.99 88.52,557.29 83.26,547.03 C79.88,540.08 73.49,525.86 70.50,518.64 C67.66,511.40 61.23,493.24 60.13,489.55 C59.03,485.87 54.44,467.16 52.84,459.55 C51.37,451.87 48.92,436.48 47.93,428.81 C46.69,417.35 46.18,409.67 45.90,398.15 C45.87,390.41 46.28,374.83 46.72,367.02 C47.31,359.27 49.39,340.12 50.00,336.32 C50.61,332.52 54.59,313.68 56.44,306.13 C58.46,298.57 62.92,283.64 65.36,276.30 C69.22,265.43 72.09,258.30 76.84,247.79 C80.17,240.81 87.30,226.95 91.08,220.11 C94.97,213.38 105.16,197.03 107.35,193.87 C109.55,190.71 121.32,175.46 126.26,169.46 C131.35,163.53 141.86,152.01 147.24,146.45 C155.43,138.34 161.11,133.15 169.95,125.75 C175.98,120.90 188.42,111.51 194.79,106.98 C201.22,102.61 217.49,92.30 220.84,90.41 C224.19,88.52 241.41,79.88 248.46,76.62 C255.62,73.49 270.08,67.66 277.35,64.99 C288.24,61.23 295.61,59.03 306.79,56.19 C314.32,54.44 329.61,51.37 337.31,50.07 C345.00,48.92 364.13,46.69 367.97,46.43 C371.81,46.18 391.07,45.87 398.85,46.00 C406.66,46.28 422.21,47.31 429.91,48.05 C441.36,49.39 448.96,50.61 460.26,52.90 C467.80,54.59 482.91,58.46 490.42,60.62 C497.84,62.92 516.05,69.22 519.62,70.65 C523.19,72.09 540.67,80.17 547.62,83.65 C554.54,87.30 568.10,94.97 574.72,98.98 C584.45,105.16 590.77,109.55 599.96,116.52 C606.02,121.32 617.95,131.35 623.78,136.56 C629.47,141.86 643.14,155.43 645.74,158.27 C648.33,161.11 660.58,175.98 665.33,182.13 C669.97,188.42 678.87,201.22 683.09,207.70 C689.18,217.49 692.97,224.19 698.22,234.45 C701.60,241.41 707.99,255.62 710.99,262.84 C713.82,270.08 720.25,288.24 721.35,291.93 C722.45,295.61 727.04,314.32 728.65,321.93 C730.11,329.61 732.57,345.00 733.55,352.67 C734.79,364.13 735.30,371.81 735.58,383.34 C735.61,391.07 735.20,406.66 734.76,414.46 C734.17,422.21 732.09,441.36 731.48,445.16 C730.87,448.96 726.89,467.80 725.04,475.36 C723.02,482.91 718.56,497.84 716.12,505.19 C712.27,516.05 709.39,523.19 704.64,533.69 C701.31,540.67 694.18,554.54 690.40,561.38 C686.51,568.10 676.32,584.45 674.13,587.61 C671.93,590.77 660.17,606.02 655.22,612.02 C650.13,617.95 639.63,629.47 634.24,635.03 C626.06,643.14 620.37,648.33 611.53,655.73 C605.51,660.58 593.07,669.97 586.69,674.50 C580.26,678.87 563.99,689.18 560.64,691.07 Z" fill="none" stroke="rgb(0, 0, 0)" stroke-width="15.00" stroke-opacity="0.99" stroke-linejoin="round"/>
</g>
<g stroke-linecap="round" id="Capa_5">
<path d="M397.27,619.09 L397.27,320.00" fill="none" stroke="rgb(0, 0, 0)" stroke-width="15.00" stroke-opacity="1.00" stroke-linejoin="miter"/>
</g>
<g stroke-linecap="round" id="Capa_6">
<path d="M415.44,224.43 C415.29,227.19 412.92,233.08 410.87,235.29 C408.56,237.69 403.66,240.22 400.37,240.72 C397.38,241.12 391.21,239.65 388.87,238.18 C386.55,236.67 382.64,231.68 381.75,228.80 C380.82,225.60 381.08,220.09 382.29,216.99 C383.44,214.20 387.80,209.59 390.24,208.30 C392.70,207.05 398.99,206.15 401.93,206.82 C405.16,207.62 409.81,210.60 411.89,213.20 C413.73,215.59 415.54,221.67 415.44,224.43 Z" fill="none" stroke="rgb(0, 0, 0)" stroke-width="15.00" stroke-opacity="0.99" stroke-linejoin="round"/>
<path d="M403.76,228.19 C402.59,229.34 398.99,230.87 397.35,230.91 C395.71,230.89 392.09,229.43 390.90,228.30 C389.75,227.13 388.22,223.54 388.18,221.90 C388.20,220.26 389.66,216.64 390.79,215.45 C391.96,214.30 395.55,212.77 397.19,212.73 C398.83,212.74 402.46,214.20 403.64,215.33 C404.79,216.50 406.32,220.10 406.36,221.74 C406.35,223.38 404.89,227.00 403.76,228.19 Z" fill="none" stroke="rgb(0, 0, 0)" stroke-width="15.00" stroke-opacity="0.99" stroke-linejoin="round"/>
<path d="M401.45,225.92 C400.87,226.88 398.70,227.45 397.72,226.90 C396.76,226.32 396.19,224.15 396.73,223.17 C397.32,222.22 399.48,221.64 400.46,222.19 C401.42,222.77 401.99,224.94 401.45,225.92 Z" fill="none" stroke="rgb(0, 0, 0)" stroke-width="15.00" stroke-opacity="0.99" stroke-linejoin="round"/>
</g>
</svg>
